<svg width="36" height="30" viewBox="0 0 36 30" fill="none" xmlns="http://www.w3.org/2000/svg">
<path d="M32.9133 0.00026838H2.61804C1.15938 0.00026838 0 1.20341 0 2.63177V27.3685C0 28.8347 1.19698 30 2.61804 30H32.8759C34.3346 30 35.4939 28.8347 35.4939 27.3685L35.4942 2.63177C35.5315 1.16561 34.3345 0 32.9134 0L32.9133 0.00026838ZM11.2204 2.70702C11.8562 2.70702 12.3425 3.23332 12.3425 3.8349C12.3425 4.47397 11.8189 4.96279 11.2204 4.96279C10.5846 4.96279 10.0983 4.43649 10.0983 3.8349C10.0983 3.19584 10.5846 2.70702 11.2204 2.70702ZM7.77946 2.70702C8.41525 2.70702 8.90157 3.23332 8.90157 3.8349C8.90157 4.47397 8.37796 4.96279 7.77946 4.96279C7.14366 4.96279 6.65734 4.43649 6.65734 3.8349C6.65734 3.19584 7.18095 2.70702 7.77946 2.70702ZM4.33851 2.70702C4.97431 2.70702 5.46063 3.23332 5.46063 3.8349C5.46063 4.47397 4.93702 4.96279 4.33851 4.96279C3.74003 4.96279 3.2164 4.43649 3.2164 3.8349C3.2164 3.19584 3.74001 2.70702 4.33851 2.70702ZM32.1279 26.3911C32.1279 26.5039 32.053 26.5791 31.9408 26.5791H3.59043C3.47824 26.5791 3.40337 26.5039 3.40337 26.3911V7.707H32.1278L32.1279 26.3911Z" fill="#DCDCDC"/>
<path d="M11.2789 16.3446C11.4652 16.5253 11.6888 16.5977 11.9123 16.5977C12.1359 16.5977 12.3594 16.5253 12.5458 16.3446L13.5892 15.3329L14.6698 16.3806C14.8562 16.5613 15.0797 16.6337 15.3033 16.6337C15.5268 16.6337 15.7504 16.5613 15.9368 16.3806C16.2721 16.0555 16.2721 15.4773 15.9368 15.1522L14.8562 14.1044L15.9368 13.0567C16.2721 12.7316 16.2721 12.1895 15.9368 11.8283C15.6014 11.5031 15.0051 11.5031 14.6698 11.8283L13.5892 12.8757L12.5087 11.828C12.1734 11.5029 11.5771 11.5029 11.2417 11.828C10.9064 12.1532 10.9064 12.6953 11.2417 13.0565L12.3223 14.1042L11.2417 15.1519C10.9061 15.4773 10.9061 16.0192 11.2789 16.3446L11.2789 16.3446Z" fill="#DCDCDC"/>
<path d="M19.595 16.3446C19.7814 16.5253 20.0049 16.5977 20.2285 16.5977C20.452 16.5977 20.6756 16.5253 20.862 16.3446L21.9057 15.3329L22.9862 16.3806C23.1726 16.5613 23.3961 16.6337 23.6197 16.6337C23.8432 16.6337 24.0668 16.5613 24.2532 16.3806C24.5885 16.0555 24.5885 15.4773 24.2532 15.1522L23.1726 14.1044L24.2532 13.0567C24.5885 12.7316 24.5885 12.1895 24.2532 11.8283C23.9178 11.5031 23.3215 11.5031 22.9862 11.8283L21.9057 12.8757L20.8251 11.828C20.4898 11.5029 19.8935 11.5029 19.5581 11.828C19.2228 12.1532 19.2228 12.6953 19.5581 13.0565L20.6387 14.1042L19.5581 15.1519C19.2225 15.4773 19.2225 16.0192 19.595 16.3446L19.595 16.3446Z" fill="#DCDCDC"/>
<path d="M22.8637 18.4158H12.5953C12.1456 18.4158 11.7334 18.7976 11.7334 19.2935C11.7334 19.7513 12.1083 20.1711 12.5953 20.1711H17.5422V21.5449C17.5422 22.8424 18.5916 23.9109 19.8657 23.9109C21.1398 23.9109 22.1891 22.8424 22.1891 21.5449V20.1711H22.9012C23.3509 20.1711 23.7631 19.7894 23.7631 19.2935C23.7257 18.7976 23.3135 18.4158 22.8636 18.4158H22.8637ZM20.4652 21.5452C20.4652 21.8886 20.2028 22.1939 19.8282 22.1939C19.4909 22.1939 19.1911 21.9267 19.1911 21.5452V20.1714H20.4278V21.5452H20.4652Z" fill="#DCDCDC"/>
</svg>
