<svg width="50" height="53" viewBox="0 0 50 53" fill="none" xmlns="http://www.w3.org/2000/svg">
<path d="M35.3223 53C34.4621 53.0013 33.6302 52.6743 32.9781 52.0786C32.326 51.4828 31.8972 50.658 31.77 49.7546C31.6427 48.8512 31.8255 47.9292 32.2848 47.1568C32.7441 46.3845 33.4495 45.8134 34.2724 45.5473C38.0263 44.3215 41.2668 41.7569 43.4462 38.287C43.9778 37.456 44.7968 36.8816 45.7252 36.6889C46.6536 36.4962 47.616 36.7009 48.403 37.2583C49.19 37.8157 49.7379 38.6808 49.9272 39.6651C50.1165 40.6494 49.9318 41.6732 49.4136 42.5137C46.3157 47.4437 41.7109 51.0876 36.3766 52.8301C36.0352 52.9425 35.6798 52.9998 35.3223 53Z" fill="#262FFC"/>
<path fill-rule="evenodd" clip-rule="evenodd" d="M22.636 36.6855C25.5563 36.6855 28.4111 35.836 30.8392 34.2447C33.2674 32.6533 35.1599 30.3914 36.2774 27.745C37.3949 25.0987 37.6873 22.1867 37.1176 19.3774C36.5479 16.568 35.1416 13.9876 33.0767 11.9622C31.0117 9.93679 28.3808 8.55746 25.5166 7.99865C22.6524 7.43984 19.6836 7.72659 16.9856 8.82275C14.2876 9.9189 11.9818 11.7752 10.3594 14.1568C8.73695 16.5385 7.87092 19.3384 7.87092 22.2028C7.87092 26.0438 9.42657 29.7276 12.1956 32.4436C14.9646 35.1596 18.72 36.6855 22.636 36.6855ZM22.5961 44.3273C27.0654 44.3273 31.4344 43.0272 35.1504 40.5916C38.8665 38.1561 41.7626 34.6944 43.4727 30.6442C45.1828 26.5941 45.6301 22.1375 44.7579 17.838C43.8856 13.5386 41.7331 9.58962 38.5725 6.49015C35.4119 3.39068 31.3852 1.28001 27.0016 0.425315C22.6181 -0.429382 18.0748 0.0102782 13.9459 1.68846C9.81711 3.36664 6.28831 6.20792 3.80594 9.85329C1.32358 13.4987 -0.000877617 17.7842 4.36299e-07 22.1679C3.79012e-07 25.0783 0.584404 27.9602 1.72002 30.6489C2.85564 33.3377 4.52015 35.7808 6.61846 37.8385C8.71676 39.8962 11.2077 41.5283 13.9492 42.6417C16.6907 43.755 19.629 44.3279 22.5961 44.3273Z" fill="#00022B"/>
</svg>
